<?xml version="1.0" standalone="no"?>
<!DOCTYPE svg PUBLIC "-//W3C//DTD SVG 20010904//EN"
 "http://www.w3.org/TR/2001/REC-SVG-20010904/DTD/svg10.dtd">
<svg version="1.0" xmlns="http://www.w3.org/2000/svg"
 width="1877.000000pt" height="55.000000pt" viewBox="0 0 1877.000000 55.000000"
 preserveAspectRatio="xMidYMid meet">

<g transform="translate(0.000000,55.000000) scale(0.100000,-0.100000)"
fill="#494949" stroke="none">
<path d="M1736 504 l-26 -27 0 -168 0 -169 25 0 25 0 0 110 0 110 50 0 c47 0
50 2 50 25 0 23 -3 25 -50 25 -47 0 -50 2 -50 25 0 31 41 60 74 51 17 -4 26
-1 30 10 11 30 6 34 -48 34 -44 0 -58 -4 -80 -26z"/>
<path d="M1939 517 c-34 -26 -39 -55 -39 -216 l0 -161 25 0 25 0 0 110 0 110
50 0 c47 0 50 2 50 25 0 23 -3 25 -50 25 -43 0 -50 3 -50 20 0 11 9 29 21 41
16 16 28 20 55 14 31 -5 34 -4 34 20 0 24 -3 25 -52 25 -29 0 -60 -6 -69 -13z"/>
<path d="M3690 352 c0 -161 2 -181 18 -195 10 -10 28 -17 41 -17 31 0 38 28
12 46 -20 14 -21 23 -21 180 l0 164 -25 0 -25 0 0 -178z"/>
<path d="M5157 523 c-4 -3 -7 -32 -7 -64 l0 -57 -40 5 c-58 8 -99 -13 -121
-61 -33 -74 -17 -156 39 -192 26 -17 138 -24 162 -9 6 4 10 77 10 196 0 177
-1 189 -18 189 -10 0 -22 -3 -25 -7z m-9 -255 l3 -88 -36 0 c-75 0 -113 88
-69 158 13 19 22 23 57 20 l42 -3 3 -87z"/>
<path d="M8637 523 c-11 -11 -8 -309 4 -340 12 -32 26 -43 57 -43 26 0 31 34
7 44 -13 4 -15 34 -15 176 l0 170 -23 0 c-13 0 -27 -3 -30 -7z"/>
<path d="M10527 523 c-4 -3 -7 -32 -7 -64 l0 -57 -40 5 c-58 8 -99 -13 -121
-61 -33 -74 -17 -156 39 -192 26 -17 138 -24 162 -9 6 4 10 77 10 196 0 177
-1 189 -18 189 -10 0 -22 -3 -25 -7z m-9 -255 l3 -88 -36 0 c-75 0 -113 88
-69 158 13 19 22 23 57 20 l42 -3 3 -87z"/>
<path d="M13020 335 l0 -195 25 0 c24 0 25 3 25 62 l0 62 36 -35 c19 -18 43
-46 52 -61 12 -20 24 -28 44 -28 15 0 28 4 28 8 0 13 -53 83 -83 111 l-26 24
49 55 c28 31 50 60 50 64 0 4 -10 8 -22 8 -14 0 -43 -21 -75 -52 l-53 -52 0
112 0 112 -25 0 -25 0 0 -195z"/>
<path d="M786 495 c-9 -24 4 -45 29 -45 24 0 42 30 30 50 -10 15 -52 12 -59
-5z"/>
<path d="M2094 496 c-10 -26 4 -48 28 -44 17 2 23 10 23 28 0 18 -6 26 -23 28
-13 2 -25 -3 -28 -12z"/>
<path d="M4024 495 c-10 -25 4 -45 30 -45 24 0 37 22 29 48 -6 17 -52 15 -59
-3z"/>
<path d="M5274 495 c-10 -25 4 -45 30 -45 24 0 37 22 29 48 -6 17 -52 15 -59
-3z"/>
<path d="M1405 486 c-42 -18 -83 -69 -91 -112 -11 -57 1 -142 23 -172 32 -43
81 -66 138 -66 107 0 169 74 163 196 -4 72 -20 103 -71 142 -33 25 -121 32
-162 12z m135 -63 c56 -51 59 -148 6 -210 -20 -23 -32 -28 -70 -28 -93 0 -136
95 -94 208 23 59 107 75 158 30z"/>
<path d="M6500 493 c-97 -37 -140 -170 -87 -273 28 -57 74 -84 141 -84 89 -1
121 16 98 51 -5 9 -17 9 -49 0 -88 -23 -153 30 -153 125 0 55 19 99 52 122 26
18 90 21 120 5 22 -12 23 -12 32 17 5 18 1 24 -25 33 -33 11 -103 14 -129 4z"/>
<path d="M6854 486 c-40 -18 -45 -27 -29 -50 13 -17 15 -17 37 -2 50 35 117 4
104 -47 -3 -14 -33 -55 -66 -92 -61 -66 -80 -99 -80 -136 0 -18 8 -19 110 -19
103 0 110 1 110 20 0 18 -7 20 -80 20 -50 0 -80 4 -80 11 0 5 22 34 48 62 80
86 92 106 92 152 0 31 -6 47 -24 64 -31 29 -99 37 -142 17z"/>
<path d="M7140 493 c-32 -13 -40 -24 -29 -44 8 -15 14 -17 29 -9 44 24 110 3
110 -36 0 -22 -38 -54 -65 -54 -37 0 -34 -37 3 -46 48 -11 72 -32 72 -64 0
-45 -36 -64 -106 -56 -53 6 -55 6 -52 -16 5 -35 81 -47 143 -24 52 20 68 43
68 98 0 29 -7 47 -27 67 -26 28 -26 28 -6 46 28 25 26 77 -3 111 -18 21 -34
27 -73 30 -27 2 -56 1 -64 -3z"/>
<path d="M10083 492 l-43 -3 0 -175 0 -174 30 0 30 0 0 71 0 70 33 -3 c27 -3
39 -13 77 -70 37 -57 49 -68 72 -68 16 0 28 4 28 8 0 5 -20 38 -44 74 l-44 66
23 12 c41 22 57 84 34 133 -21 46 -93 68 -196 59z m127 -67 c24 -22 26 -67 5
-85 -9 -7 -38 -15 -65 -18 l-50 -5 0 68 0 68 45 -6 c25 -2 55 -13 65 -22z"/>
<path d="M11438 488 c-29 -10 -34 -23 -18 -48 7 -12 12 -12 22 -2 15 15 80 16
96 0 32 -32 -4 -88 -55 -88 -16 0 -23 -6 -23 -19 0 -19 6 -23 63 -35 16 -4 32
-17 39 -32 10 -20 8 -29 -9 -52 -22 -30 -67 -40 -113 -23 -28 9 -40 0 -40 -29
0 -16 81 -32 123 -24 89 15 130 112 71 171 -22 22 -23 27 -11 42 23 27 28 52
16 88 -18 55 -89 78 -161 51z"/>
<path d="M15450 489 c-66 -26 -102 -89 -102 -174 0 -136 89 -207 222 -175 45
11 50 15 44 34 -9 28 -8 28 -38 16 -70 -26 -135 -2 -160 60 -21 52 -20 85 3
136 27 59 77 75 171 53 10 -3 15 4 15 21 0 17 -7 26 -25 31 -37 10 -101 9
-130 -2z"/>
<path d="M16144 466 c-29 -29 -34 -41 -34 -81 0 -38 5 -52 29 -76 25 -24 37
-29 80 -29 35 0 51 -4 51 -13 0 -24 -58 -70 -97 -76 -29 -5 -39 -11 -41 -29
-3 -17 1 -22 20 -22 87 0 158 56 178 139 29 120 -22 221 -110 221 -34 0 -48
-6 -76 -34z m126 -46 c5 -10 10 -35 10 -54 0 -30 -4 -37 -25 -42 -62 -15 -109
28 -89 84 18 53 78 60 104 12z"/>
<path d="M16434 486 c-40 -18 -45 -27 -29 -50 13 -17 15 -17 37 -2 50 35 117
4 104 -47 -3 -14 -33 -55 -66 -92 -61 -66 -80 -99 -80 -136 0 -18 8 -19 110
-19 103 0 110 1 110 20 0 18 -7 20 -80 20 -50 0 -80 4 -80 11 0 5 22 34 48 62
80 86 92 106 92 152 0 31 -6 47 -24 64 -31 29 -99 37 -142 17z"/>
<path d="M16998 488 c-28 -10 -34 -23 -20 -45 5 -8 13 -9 22 -3 21 14 84 12
98 -2 32 -32 -4 -88 -55 -88 -16 0 -23 -6 -23 -19 0 -20 18 -31 50 -31 26 0
59 -45 53 -71 -12 -43 -70 -59 -143 -38 -10 3 -15 -4 -15 -21 0 -20 6 -25 40
-33 83 -17 159 18 171 79 7 40 -10 90 -37 105 -18 9 -18 10 1 29 23 23 27 86
6 112 -26 35 -93 47 -148 26z"/>
<path d="M17303 488 c-38 -19 -64 -87 -64 -170 0 -41 5 -87 11 -103 39 -104
156 -111 201 -12 21 47 25 149 9 209 -20 70 -94 106 -157 76z m91 -62 c35 -54
29 -192 -11 -231 -24 -25 -56 -14 -76 25 -24 46 -20 163 6 203 22 34 59 36 81
3z"/>
<path d="M18150 483 c-27 -14 -37 -27 -45 -56 -14 -57 6 -85 90 -127 63 -31
70 -38 73 -67 2 -24 -2 -34 -19 -43 -21 -12 -78 -9 -125 5 -16 5 -23 2 -27
-14 -7 -29 24 -44 93 -45 102 -1 150 41 136 118 -8 41 -20 52 -100 91 -64 31
-81 60 -56 91 14 16 82 19 111 4 16 -9 21 -7 28 12 11 29 -3 38 -72 44 -38 4
-61 0 -87 -13z"/>
<path d="M106 444 c-3 -26 -9 -105 -13 -176 l-6 -128 26 0 c26 0 27 1 28 68 1
37 4 94 8 127 l6 60 29 -60 c15 -33 37 -79 48 -102 14 -32 25 -43 41 -43 19 0
30 17 66 95 24 52 47 95 52 95 5 0 9 -33 9 -74 0 -40 3 -94 6 -120 6 -41 10
-46 32 -46 25 0 25 0 19 73 -4 39 -10 118 -13 175 l-7 102 -27 0 c-24 0 -31
-11 -81 -113 l-54 -114 -55 111 c-47 95 -59 111 -81 114 -24 3 -27 -1 -33 -44z"/>
<path d="M2985 478 c-3 -12 -25 -286 -25 -322 0 -10 9 -16 24 -16 30 0 36 20
36 130 0 47 4 91 9 98 5 9 22 -19 52 -82 36 -79 48 -96 67 -96 18 0 30 17 70
102 l47 103 7 -55 c3 -30 6 -88 7 -127 1 -72 1 -73 28 -73 l26 0 -6 128 c-10
199 -15 222 -44 222 -20 0 -31 -15 -76 -109 -29 -61 -54 -110 -57 -110 -3 -1
-29 49 -58 109 -46 97 -55 110 -77 110 -14 0 -27 -6 -30 -12z"/>
<path d="M4287 458 c-4 -18 -9 -78 -12 -133 -3 -55 -8 -119 -11 -143 -5 -41
-5 -42 25 -42 l31 0 1 88 c0 48 3 105 7 126 l7 40 47 -102 c40 -86 51 -102 70
-102 19 0 30 16 68 103 41 94 45 100 51 72 4 -16 7 -74 8 -127 l1 -98 31 0 31
0 -6 48 c-3 26 -8 92 -11 147 -8 143 -12 155 -42 155 -22 0 -31 -13 -76 -110
-29 -60 -54 -110 -57 -110 -3 0 -28 50 -57 110 -45 96 -54 110 -76 110 -20 0
-26 -6 -30 -32z"/>
<path d="M5910 315 l0 -175 105 0 105 0 0 25 c0 25 -1 25 -80 25 l-80 0 0 150
0 150 -25 0 -25 0 0 -175z"/>
<path d="M6170 315 l0 -175 105 0 105 0 0 25 c0 25 -1 25 -80 25 l-80 0 0 150
0 150 -25 0 -25 0 0 -175z"/>
<path d="M7480 468 c-77 -39 -114 -137 -90 -237 14 -58 44 -90 92 -97 89 -15
156 83 117 170 -16 34 -73 60 -115 53 -72 -12 -18 64 60 85 33 9 46 17 46 30
0 26 -55 24 -110 -4z m66 -183 c29 -44 2 -105 -47 -105 -35 0 -59 32 -59 81 0
45 4 49 51 49 30 0 42 -6 55 -25z"/>
<path d="M7765 480 c-4 -6 -24 -22 -46 -36 -58 -36 -49 -80 10 -49 17 8 32 15
36 15 3 0 5 -61 5 -135 l0 -135 25 0 25 0 0 175 0 175 -24 0 c-14 0 -28 -5
-31 -10z"/>
<path d="M7975 415 c-9 -96 -6 -105 45 -105 30 0 47 -7 65 -25 31 -30 32 -58
4 -86 -19 -19 -29 -21 -81 -15 -57 6 -59 5 -56 -16 7 -49 130 -48 180 2 23 23
28 37 28 75 0 57 -28 89 -95 106 l-46 12 3 41 3 41 63 3 c54 3 62 6 62 22 0
18 -7 20 -84 20 l-84 0 -7 -75z"/>
<path d="M8350 315 l0 -175 115 0 115 0 0 25 c0 25 -1 25 -85 25 l-85 0 0 55
0 55 70 0 c68 0 70 1 70 25 0 24 -2 25 -70 25 l-70 0 0 50 0 50 80 0 c73 0 80
2 80 20 0 19 -7 20 -110 20 l-110 0 0 -175z"/>
<path d="M8860 465 c0 -23 3 -25 50 -25 l49 0 3 -147 3 -148 28 -3 27 -3 0
150 0 150 53 3 c45 3 52 6 55 26 3 22 3 22 -132 22 l-136 0 0 -25z"/>
<path d="M10834 445 c-6 -44 -7 -45 -45 -45 -32 0 -39 -3 -39 -20 0 -16 7 -20
30 -20 24 0 30 -4 30 -22 0 -47 -12 -68 -36 -68 -17 0 -24 -6 -24 -20 0 -14 7
-20 21 -20 18 0 20 -4 13 -46 -6 -44 -6 -46 17 -42 19 2 25 12 32 46 8 40 10
42 44 42 l35 0 -6 -45 c-7 -43 -6 -45 17 -45 22 0 26 6 31 45 7 45 8 45 47 45
32 0 39 3 39 19 0 15 -8 21 -32 23 -26 2 -32 7 -30 23 8 56 13 65 37 65 18 0
25 5 25 20 0 14 -7 20 -21 20 -20 0 -21 4 -15 45 7 43 6 45 -17 45 -22 0 -26
-6 -31 -45 -7 -44 -8 -45 -46 -45 l-38 0 9 38 c12 52 12 52 -15 52 -22 0 -26
-6 -32 -45z m100 -122 c-9 -52 -10 -53 -51 -53 l-35 0 7 37 c9 51 11 53 51 53
35 0 35 0 28 -37z"/>
<path d="M11126 409 c47 -67 55 -84 46 -98 -23 -32 -102 -162 -102 -166 0 -3
13 -5 30 -5 23 0 33 7 46 33 10 17 29 49 43 71 l25 38 21 -24 c11 -14 32 -46
47 -72 23 -39 32 -46 58 -46 l31 0 -27 48 c-15 26 -40 66 -56 89 -15 23 -28
47 -28 53 0 6 20 39 43 73 64 90 63 87 25 87 -29 -1 -37 -8 -71 -62 l-39 -61
-40 61 c-37 56 -44 62 -75 62 l-33 0 56 -81z"/>
<path d="M11784 437 c-62 -78 -104 -151 -104 -181 0 -26 1 -26 75 -26 l75 0 0
-45 c0 -41 2 -45 25 -45 23 0 25 4 25 45 0 38 3 45 20 45 13 0 20 7 20 20 0
13 -7 20 -20 20 -19 0 -20 7 -20 110 l0 110 -27 0 c-21 -1 -38 -13 -69 -53z
m46 -92 l0 -75 -51 0 c-42 0 -50 3 -45 15 7 20 85 135 91 135 3 0 5 -34 5 -75z"/>
<path d="M12073 445 c-54 -64 -113 -165 -113 -192 0 -22 3 -23 75 -23 l75 0 0
-45 c0 -41 2 -45 25 -45 23 0 25 4 25 45 0 38 3 45 20 45 13 0 20 7 20 20 0
13 -7 20 -20 20 -19 0 -20 7 -20 110 l0 110 -25 0 c-16 0 -36 -14 -62 -45z
m34 -172 c-3 -2 -26 -3 -52 -1 l-47 3 48 73 49 74 3 -72 c2 -40 1 -74 -1 -77z"/>
<path d="M12500 315 l0 -175 105 0 105 0 0 25 c0 25 -1 25 -80 25 l-80 0 0
150 0 150 -25 0 -25 0 0 -175z"/>
<path d="M13660 315 l0 -175 30 0 30 0 0 80 0 80 70 0 c68 0 70 1 70 25 0 24
-2 25 -70 25 l-70 0 0 50 0 50 80 0 c73 0 80 2 80 20 0 19 -7 20 -110 20
l-110 0 0 -175z"/>
<path d="M15770 471 c-10 -20 -130 -321 -130 -327 0 -2 13 -4 29 -4 26 0 31 5
44 43 l14 42 78 0 78 0 15 -42 c12 -38 17 -43 43 -43 16 0 29 2 29 5 0 9 -109
283 -124 314 -19 36 -59 43 -76 12z m86 -176 c6 -24 5 -25 -51 -25 l-57 0 7
28 c4 15 16 49 28 76 l21 50 23 -52 c12 -29 25 -63 29 -77z"/>
<path d="M16785 471 c-49 -22 -73 -48 -91 -98 -32 -92 -8 -199 53 -228 86 -41
177 32 159 129 -10 54 -48 81 -111 80 l-53 0 13 26 c19 36 32 46 85 61 55 16
52 13 44 33 -8 21 -49 20 -99 -3z m54 -175 c7 -8 13 -28 13 -45 2 -59 -59 -93
-95 -53 -18 19 -32 85 -22 101 9 16 91 13 104 -3z"/>
<path d="M17771 368 c0 -137 11 -182 52 -212 38 -28 126 -28 164 0 41 30 52
75 52 212 l1 122 -30 0 -30 0 0 -130 c0 -126 -1 -132 -25 -155 -44 -45 -106
-24 -125 43 -5 20 -10 83 -10 140 l0 102 -25 0 -25 0 1 -122z"/>
<path d="M18457 433 c-39 -88 -107 -265 -107 -280 0 -7 11 -13 24 -13 20 0 28
9 42 45 l17 46 75 -3 75 -3 16 -42 c13 -37 19 -43 43 -43 15 0 28 3 28 8 0 8
-65 177 -105 275 -25 59 -32 67 -55 67 -23 0 -31 -8 -53 -57z m81 -82 c32 -78
31 -81 -33 -81 -30 0 -55 3 -55 7 0 20 54 143 60 136 4 -4 16 -32 28 -62z"/>
<path d="M3827 473 c-10 -9 -8 -210 2 -262 11 -57 33 -73 96 -69 44 3 50 6 53
26 3 22 1 23 -32 16 -56 -10 -66 5 -66 97 l0 79 45 0 c41 0 45 2 45 25 0 23
-4 25 -45 25 -45 0 -45 0 -45 35 0 30 -3 35 -23 35 -13 0 -27 -3 -30 -7z"/>
<path d="M14912 324 c3 -180 6 -184 93 -184 59 0 65 3 58 31 -5 16 -11 18 -43
13 -49 -8 -60 11 -60 105 l0 71 51 0 c47 0 50 2 47 23 -3 19 -10 22 -50 25
-47 3 -48 4 -48 38 0 30 -3 34 -26 34 l-25 0 3 -156z"/>
<path d="M547 403 c-4 -3 -7 -15 -7 -26 0 -17 5 -19 36 -14 45 7 81 -9 86 -38
5 -21 1 -23 -55 -27 -68 -5 -97 -29 -97 -78 0 -61 57 -90 155 -80 l50 5 0 108
c0 107 -1 109 -28 133 -22 19 -40 24 -81 24 -29 0 -56 -3 -59 -7z m118 -183
c0 -32 -3 -35 -32 -38 -18 -2 -41 2 -53 8 -44 24 -9 73 49 68 34 -3 36 -5 36
-38z"/>
<path d="M790 275 l0 -135 25 0 25 0 0 135 0 135 -25 0 -25 0 0 -135z"/>
<path d="M938 403 c-16 -4 -18 -19 -18 -134 l0 -129 25 0 25 0 0 110 0 110 39
0 c58 0 71 -24 71 -132 0 -87 0 -88 25 -88 25 0 25 0 25 95 0 107 -14 150 -56
165 -25 10 -104 12 -136 3z"/>
<path d="M2097 403 c-4 -3 -7 -64 -7 -135 l0 -128 25 0 25 0 0 135 c0 124 -1
135 -18 135 -10 0 -22 -3 -25 -7z"/>
<path d="M2274 400 c-57 -23 -86 -114 -60 -185 25 -64 60 -81 159 -76 21 1 27
6 27 24 0 22 -4 23 -51 23 -64 -1 -89 24 -89 90 0 66 28 89 103 84 31 -2 49
26 26 41 -18 11 -87 11 -115 -1z"/>
<path d="M2503 400 c-38 -15 -63 -68 -63 -132 0 -49 4 -62 28 -88 31 -35 81
-50 138 -41 30 5 39 11 39 26 0 18 -6 20 -52 17 -45 -3 -56 0 -78 22 -47 47
-36 56 65 56 100 0 100 0 80 72 -19 66 -88 96 -157 68z m87 -50 c37 -37 26
-50 -40 -50 -33 0 -60 3 -60 6 0 16 24 46 43 54 32 13 35 12 57 -10z"/>
<path d="M2735 396 c-20 -15 -17 -44 7 -59 12 -8 21 -7 32 2 36 30 -1 85 -39
57z"/>
<path d="M3402 301 c3 -100 5 -112 28 -136 23 -24 29 -26 100 -23 l75 3 3 133
3 133 -23 -3 c-22 -3 -23 -7 -26 -115 l-3 -113 -32 0 c-62 0 -72 16 -75 129
-4 100 -4 101 -29 101 l-25 0 4 -109z"/>
<path d="M4030 276 l0 -136 25 0 26 0 -3 133 c-3 128 -4 132 -25 135 -23 3
-23 3 -23 -132z"/>
<path d="M4748 393 c-76 -47 -74 -203 4 -244 23 -12 120 -15 138 -4 5 3 10 15
10 25 0 17 -6 18 -47 14 -39 -5 -53 -2 -75 16 -16 12 -28 30 -28 41 0 17 8 19
85 19 l85 0 0 35 c0 43 -23 90 -49 105 -29 15 -93 12 -123 -7z m97 -48 c38
-37 31 -45 -35 -45 -68 0 -78 14 -34 49 34 27 40 26 69 -4z"/>
<path d="M5280 276 l0 -136 25 0 26 0 -3 133 c-3 128 -4 132 -25 135 -23 3
-23 3 -23 -132z"/>
<path d="M5422 402 c-7 -5 -10 -16 -6 -26 6 -15 14 -17 44 -12 42 7 80 -14 80
-45 0 -16 -7 -19 -49 -19 -66 0 -101 -27 -101 -78 1 -69 42 -91 151 -84 l49 4
0 109 c0 103 -1 111 -25 134 -19 20 -34 25 -77 25 -29 0 -59 -4 -66 -8z m118
-182 c0 -40 0 -40 -38 -40 -41 0 -62 14 -62 42 0 22 27 37 68 38 31 0 32 -1
32 -40z"/>
<path d="M9189 395 c-79 -43 -77 -204 3 -246 33 -18 99 -15 130 5 66 43 73
158 14 221 -29 30 -40 35 -77 35 -24 -1 -56 -7 -70 -15z m115 -57 c25 -36 21
-104 -9 -133 -13 -14 -31 -25 -40 -25 -66 0 -97 107 -48 163 23 25 78 22 97
-5z"/>
<path d="M9463 403 c-22 -4 -23 -8 -23 -134 l0 -129 25 0 25 0 0 109 0 110 48
3 c39 3 47 6 47 23 0 17 -7 20 -50 21 -27 1 -60 0 -72 -3z"/>
<path d="M9678 394 c-38 -20 -58 -63 -58 -125 0 -128 140 -183 215 -85 30 39
34 119 10 166 -28 55 -109 76 -167 44z m111 -60 c30 -38 28 -98 -4 -129 -31
-32 -59 -32 -90 0 -37 36 -31 120 9 147 24 17 65 8 85 -18z"/>
<path d="M12777 403 c-4 -3 -7 -15 -7 -26 0 -17 5 -19 36 -14 45 7 81 -9 86
-38 5 -21 1 -23 -55 -27 -68 -5 -97 -29 -97 -78 0 -61 57 -90 155 -80 l50 5 0
108 c0 107 -1 109 -28 133 -22 19 -40 24 -81 24 -29 0 -56 -3 -59 -7z m118
-183 c0 -32 -3 -35 -32 -38 -18 -2 -41 2 -53 8 -44 24 -9 73 49 68 34 -3 36
-5 36 -38z"/>
<path d="M13308 393 c-76 -47 -74 -203 4 -244 23 -12 120 -15 138 -4 5 3 10
15 10 25 0 17 -6 18 -47 14 -39 -5 -53 -2 -75 16 -16 12 -28 30 -28 41 0 17 8
19 85 19 l85 0 0 35 c0 43 -23 90 -49 105 -29 15 -93 12 -123 -7z m97 -48 c38
-37 31 -45 -35 -45 -68 0 -78 14 -34 49 34 27 40 26 69 -4z"/>
<path d="M13969 395 c-79 -43 -77 -204 3 -246 33 -18 99 -15 130 5 66 43 73
158 14 221 -29 30 -40 35 -77 35 -24 -1 -56 -7 -70 -15z m115 -57 c25 -36 21
-104 -9 -133 -13 -14 -31 -25 -40 -25 -66 0 -97 107 -48 163 23 25 78 22 97
-5z"/>
<path d="M14243 403 c-22 -4 -23 -8 -23 -134 l0 -129 25 0 25 0 0 109 0 110
48 3 c39 3 47 6 47 23 0 17 -7 20 -50 21 -27 1 -60 0 -72 -3z"/>
<path d="M14463 400 c-38 -15 -63 -68 -63 -132 0 -49 4 -62 28 -88 31 -35 81
-50 138 -41 30 5 39 11 39 26 0 18 -6 20 -52 17 -45 -3 -56 0 -78 22 -47 47
-36 56 65 56 100 0 100 0 80 72 -19 66 -88 96 -157 68z m87 -50 c37 -37 26
-50 -40 -50 -33 0 -60 3 -60 6 0 16 24 46 43 54 32 13 35 12 57 -10z"/>
<path d="M14695 386 c-48 -48 -29 -96 51 -131 46 -21 55 -28 52 -47 -3 -21 -7
-23 -66 -21 -60 1 -63 0 -60 -20 4 -26 60 -39 116 -26 45 10 65 31 65 68 0 38
-18 60 -69 83 -51 22 -66 39 -54 58 7 11 24 14 60 13 48 -2 51 -1 48 20 -3 19
-10 22 -60 25 -51 3 -61 0 -83 -22z"/>
<path d="M2727 194 c-12 -12 -8 -41 7 -53 22 -18 58 4 54 32 -3 22 -45 36 -61
21z"/>
<path d="M5660 161 c0 -22 -4 -51 -10 -65 -5 -15 -6 -26 -1 -26 5 0 16 -3 24
-6 11 -4 19 8 31 42 25 74 22 94 -14 94 -28 0 -30 -2 -30 -39z"/>
<path d="M12260 172 c0 -15 -4 -43 -10 -62 -9 -33 -2 -49 22 -50 13 0 38 71
38 106 0 30 -3 34 -25 34 -21 0 -25 -5 -25 -28z"/>
<path d="M15112 138 c-11 -60 -7 -77 19 -78 11 0 39 79 39 110 0 25 -4 30 -23
30 -21 0 -25 -7 -35 -62z"/>
<path d="M17530 166 c0 -19 -5 -47 -10 -62 -10 -26 -2 -43 22 -44 12 0 37 56
44 99 7 41 6 41 -25 41 -29 0 -31 -3 -31 -34z"/>
</g>
</svg>
